<svg xmlns="http://www.w3.org/2000/svg" viewBox="0 0 900 1200" width="900" height="1200">
    <defs>
      <linearGradient id="g" x1="0" y1="0" x2="1" y2="1">
        <stop offset="0" stop-color="#d4c4ac"></stop>
        <stop offset="1" stop-color="#7a6a52"></stop>
      </linearGradient>
      <filter id="grain"><feTurbulence type="fractalNoise" baseFrequency="0.9" numOctaves="2" seed="5"></feTurbulence><feColorMatrix values="0 0 0 0 0.6  0 0 0 0 0.5  0 0 0 0 0.4  0 0 0 0.08 0"></feColorMatrix><feComposite in2="SourceGraphic" operator="in"></feComposite></filter>
    </defs>
    <rect width="900" height="1200" fill="url(#g)"></rect><rect x="0" y="813.8550364123988" width="46.30226690550618" height="386.1449635876012" fill="#7a6a52" opacity="0.7187418804961473"></rect><rect x="48.30226690550618" y="838.705512646829" width="55.119323215026924" height="361.294487353171" fill="#7a6a52" opacity="0.6968094796964115"></rect><rect x="105.4215901205331" y="738.8205156501983" width="22.844023451148523" height="461.17948434980167" fill="#7a6a52" opacity="0.6885453877900163"></rect><rect x="130.26561357168163" y="592.698187005333" width="33.78416294542734" height="607.301812994667" fill="#7a6a52" opacity="0.6964936713652201"></rect><rect x="166.04977651710897" y="867.958513640335" width="24.597065762411624" height="332.041486359665" fill="#7a6a52" opacity="0.5831793260087975"></rect><rect x="192.6468422795206" y="761.8113382863804" width="29.91127017740608" height="438.1886617136196" fill="#7a6a52" opacity="0.7034238135013909"></rect><rect x="224.55811245692666" y="883.3418918480838" width="55.23857329275524" height="316.6581081519162" fill="#7a6a52" opacity="0.5910790681869784"></rect><rect x="281.7966857496819" y="625.7008955041706" width="52.17522632107584" height="574.2991044958294" fill="#7a6a52" opacity="0.6132727227303687"></rect><rect x="335.97191207075775" y="795.3429634643135" width="29.932779683216168" height="404.6570365356866" fill="#7a6a52" opacity="0.6947882051655909"></rect><rect x="367.9046917539739" y="895.4844066953194" width="22.863380032431348" height="304.5155933046805" fill="#7a6a52" opacity="0.5649916266679088"></rect><rect x="392.76807178640524" y="534.1965949036637" width="43.459475900169295" height="665.8034050963363" fill="#7a6a52" opacity="0.7533193282408397"></rect><rect x="438.22754768657455" y="512.6083687394578" width="24.15648629505943" height="687.3916312605422" fill="#7a6a52" opacity="0.5172431525065758"></rect><rect x="464.384033981634" y="895.8577107997642" width="36.18304647071671" height="304.14228920023584" fill="#7a6a52" opacity="0.7853760530336168"></rect><rect x="502.5670804523507" y="749.9162121285557" width="25.06782664034527" height="450.0837878714443" fill="#7a6a52" opacity="0.7074456355553361"></rect><rect x="529.6349070926959" y="799.1471686433553" width="22.80457679876888" height="400.85283135664474" fill="#7a6a52" opacity="0.7608524457991178"></rect><rect x="554.4394838914648" y="560.0904485253409" width="22.61296518518297" height="639.9095514746591" fill="#7a6a52" opacity="0.6995220358962867"></rect><rect x="579.0524490766477" y="629.8352394328988" width="51.11560432548938" height="570.1647605671012" fill="#7a6a52" opacity="0.6532088552393259"></rect><rect x="632.168053402137" y="846.6379636645587" width="29.657372370021662" height="353.3620363354413" fill="#7a6a52" opacity="0.7329964196081167"></rect><rect x="663.8254257721587" y="834.8722599335983" width="16.642035043205063" height="365.12774006640166" fill="#7a6a52" opacity="0.5035955795855839"></rect><rect x="682.4674608153638" y="595.8078984554417" width="17.778644636766195" height="604.1921015445583" fill="#7a6a52" opacity="0.6314022811016686"></rect><rect x="702.24610545213" y="618.0175392263859" width="49.37950619709445" height="581.9824607736141" fill="#7a6a52" opacity="0.5347421699110999"></rect><rect x="753.6256116492244" y="821.3200496295863" width="33.756061630334344" height="378.67995037041374" fill="#7a6a52" opacity="0.8223930262664763"></rect><rect x="789.3816732795588" y="550.4872851787302" width="28.380488312679333" height="649.5127148212698" fill="#7a6a52" opacity="0.7885420805332346"></rect><rect x="819.762161592238" y="592.2187943208457" width="41.852608505388304" height="607.7812056791543" fill="#7a6a52" opacity="0.7549816323888087"></rect><rect x="863.6147700976263" y="536.3156482448888" width="20.997698830733025" height="663.6843517551112" fill="#7a6a52" opacity="0.7773015299348994"></rect><rect x="886.6124689283594" y="813.7253185021664" width="34.67034632380424" height="386.2746814978336" fill="#7a6a52" opacity="0.6596642736428315"></rect>
    <rect width="900" height="1200" filter="url(#grain)" opacity="0.6"></rect>
  </svg>